HIERARCHY
ROOT Hips
{
	OFFSET 0.00000 0.00000 0.00000
	CHANNELS 6 Xposition Yposition Zposition Zrotation Yrotation Xrotation 
	JOINT LHipJoint
	{
		OFFSET 0 0 0
		CHANNELS 3 Zrotation Yrotation Xrotation
		JOINT LeftHip
		{
			OFFSET 1.46561 -1.72757 0.83774
			CHANNELS 3 Zrotation Yrotation Xrotation
			JOINT LeftKnee
			{
				OFFSET 2.48915 -6.83890 0.00000
				CHANNELS 3 Zrotation Yrotation Xrotation
				JOINT LeftAnkle
				{
					OFFSET 2.60555 -7.15868 0.00000
					CHANNELS 3 Zrotation Yrotation Xrotation
					JOINT LeftToe
					{
						OFFSET 0.19248 -0.52884 2.26738
						CHANNELS 3 Zrotation Yrotation Xrotation
						End Site
						{
							OFFSET 0.00000 -0.00000 1.17015
						}
					}
				}
			}
		}
	}
	JOINT RHipJoint
	{
		OFFSET 0 0 0
		CHANNELS 3 Zrotation Yrotation Xrotation
		JOINT RightHip
		{
			OFFSET -1.46918 -1.72757 0.83774
			CHANNELS 3 Zrotation Yrotation Xrotation
			JOINT RightKnee
			{
				OFFSET -2.49034 -6.84216 0.00000
				CHANNELS 3 Zrotation Yrotation Xrotation
				JOINT RightAnkle
				{
					OFFSET -2.65971 -7.30750 0.00000
					CHANNELS 3 Zrotation Yrotation Xrotation
					JOINT RightToe
					{
						OFFSET -0.19227 -0.52827 2.30785
						CHANNELS 3 Zrotation Yrotation Xrotation
						End Site
						{
							OFFSET -0.00000 -0.00000 1.18972
						}
					}
				}
			}
		}
	}
	JOINT lowerback
	{
		OFFSET 0 0 0
		CHANNELS 3 Zrotation Yrotation Xrotation
		JOINT Chest
		{
			OFFSET 0.02432 2.19909 -0.28000
			CHANNELS 3 Zrotation Yrotation Xrotation
			JOINT Chest2
			{
				OFFSET 0.03714 2.21816 -0.15261
				CHANNELS 3 Zrotation Yrotation Xrotation
				JOINT lowerneck
				{
					OFFSET 0 0 0
					CHANNELS 3 Zrotation Yrotation Xrotation
					JOINT Neck
					{
						OFFSET -0.01896 1.56165 0.21681
						CHANNELS 3 Zrotation Yrotation Xrotation
						JOINT Head
						{
							OFFSET 0.02744 1.56009 0.06764
							CHANNELS 3 Zrotation Yrotation Xrotation
							End Site
							{
								OFFSET 0.01212 1.60574 0.00298
							}
						}
					}
				}
				JOINT LeftCollar
				{
					OFFSET 0 0 0
					CHANNELS 3 Zrotation Yrotation Xrotation
					JOINT LeftShoulder
					{
						OFFSET 3.05595 1.48048 -0.60794
CHANNELS 3 Zrotation Xrotation Yrotation
						JOINT LeftElbow
						{
OFFSET 0 -5.206070 -0.000000
CHANNELS 3 Zrotation Xrotation Yrotation
							JOINT LeftWrist
							{
OFFSET 0 -3.399610 0.000000
CHANNELS 3 Zrotation Xrotation Yrotation
								JOINT lhand
								{
									OFFSET 0 0 0
CHANNELS 3 Zrotation Xrotation Yrotation
									JOINT LFingers
									{
OFFSET 0 -0.519690 0.000000
CHANNELS 3 Zrotation Xrotation Yrotation
										End Site
										{
OFFSET 0 -0.418990 0.000000
										}
									}
								}
								JOINT LThumb
								{
OFFSET 0 0.000000 0.000000
CHANNELS 3 Zrotation Xrotation Yrotation
									End Site
									{
OFFSET 0 -0.425390 0.425390
									}
								}
							}
						}
					}
				}
				JOINT RightCollar
				{
					OFFSET 0 0 0
					CHANNELS 3 Zrotation Yrotation Xrotation
					JOINT RightShoulder
					{
						OFFSET -2.99052 1.57608 -0.69102
CHANNELS 3 Zrotation Xrotation Yrotation
						JOINT RightElbow
						{
OFFSET 0 -5.322140 0.000000
CHANNELS 3 Zrotation Xrotation Yrotation
							JOINT RightWrist
							{
OFFSET 0 -3.512080 0.000000
CHANNELS 3 Zrotation Xrotation Yrotation
								JOINT rhand
								{
									OFFSET 0 0 0
CHANNELS 3 Zrotation Xrotation Yrotation
									JOINT RFingers
									{
OFFSET 0 -0.586680 0.000000
CHANNELS 3 Zrotation Xrotation Yrotation
										End Site
										{
OFFSET 0 -0.473000 0.000000
										}
									}
								}
								JOINT RThumb
								{
OFFSET 0 0.000000 0.000000
CHANNELS 3 Zrotation Xrotation Yrotation
									End Site
									{
OFFSET 0 -0.480220 0.480220
									}
								}
							}
						}
					}
				}
			}
		}
	}
}
MOTION
Frames: 4
Frame Time: 0.008333333333333333
0.748000 17.518300 -14.107800 -0.585200 -1.780600 5.284600 0.000000 0.000000 0.000000 -20.039200 3.611800 -14.233200 1.224800 7.019300 19.772400 0.484100 -1.263500 -12.765900 0.145800 2.460600 6.780500 0.000000 0.000000 0.000000 17.586400 3.766600 -14.207700 -1.753900 -8.333400 23.731400 -0.632200 2.877200 -14.315200 -0.328300 -3.682300 10.184700 -1.340800 -0.803300 -1.625100 1.310400 -1.077700 4.127300 2.042300 -0.620800 5.228800 -1.842400 0.769100 -12.834500 0.865400 1.305600 33.405900 0.856100 0.439500 13.347500 -0.000000 -0.000000 0.000000 4.237200 -10.516000 -20.038100 8.382400 -14.170800 1.043700 26.243400 0.876300 2.890900 0.000000 0.000000 0.000000 -7.125000 0.000000 0.000000 -0.273500 26.757200 -0.121100 -0.000000 -0.000000 0.000000 -0.955800 -4.993200 12.251900 -13.518000 -22.041400 -2.644500 -20.296000 38.987900 24.909200 0.000000 0.000000 0.000000 7.125000 0.000000 -0.000000 10.075900 56.036400 -2.747600
0.737361 17.521337 -14.106608 -0.558696 -1.789200 5.312305 0.000000 0.000000 0.000000 -20.040325 3.547035 -14.186550 1.214462 6.990627 19.687608 0.479076 -1.116208 -12.735092 0.143788 2.443554 6.733272 0.000000 0.000000 0.000000 17.592920 3.604616 -14.298320 -1.751483 -8.327973 23.714623 -0.622978 3.037995 -14.184546 -0.330619 -3.695463 10.221473 -1.364899 -0.786550 -1.640544 1.317340 -1.054716 4.160906 2.064221 -0.611180 5.272522 -1.831714 0.755340 -12.902410 0.826006 1.297912 33.360879 0.837765 0.432882 13.343629 0.000000 0.000000 0.000000 4.147947 -10.542110 -19.942632 8.396528 -14.193547 1.047241 26.052351 0.970692 2.642793 0.000000 0.000000 0.000000 -7.125000 0.000000 0.000000 -0.416110 27.038318 -0.181155 0.000000 0.000000 0.000000 -1.030152 -5.085774 12.307988 -13.478629 -21.984413 -2.629733 -20.228081 39.009078 24.887828 0.000000 0.000000 0.000000 7.125000 0.000000 0.000000 10.137368 56.000891 -2.755964
0.726255 17.524030 -14.105183 -0.557758 -1.799031 5.332289 0.000000 0.000000 0.000000 -20.008906 3.468320 -14.128696 1.206352 6.968006 19.620642 0.476874 -0.966914 -12.744873 0.143072 2.437703 6.717000 0.000000 0.000000 0.000000 17.629470 3.513638 -14.329885 -1.745693 -8.314970 23.674919 -0.615946 3.144782 -14.087753 -0.337690 -3.734303 10.330420 -1.351998 -0.758374 -1.631876 1.312766 -1.017445 4.176915 2.054617 -0.592250 5.282237 -1.825115 0.741769 -12.906723 0.822925 1.277739 33.310166 0.831908 0.425282 13.323037 0.000000 0.000000 0.000000 4.083844 -10.517526 -19.940848 8.425878 -14.240866 1.054446 25.834983 1.075396 2.489470 0.000000 0.000000 0.000000 -7.125000 0.000000 0.000000 -0.581019 27.213835 -0.250506 0.000000 0.000000 0.000000 -1.063680 -5.163284 12.245235 -13.412792 -21.889022 -2.605175 -20.263399 39.128679 24.800818 0.000000 0.000000 0.000000 7.125000 0.000000 0.000000 10.060768 55.919752 -2.714943
0.715136 17.527106 -14.103915 -0.552777 -1.781859 5.353885 0.000000 0.000000 0.000000 -19.978111 3.382505 -14.086011 1.199540 6.949098 19.564585 0.473642 -0.847780 -12.733633 0.142367 2.431857 6.700786 0.000000 0.000000 0.000000 17.668503 3.410141 -14.361841 -1.739808 -8.301594 23.634045 -0.611144 3.226243 -14.021559 -0.335133 -3.720412 10.291398 -1.320734 -0.732367 -1.599880 1.297227 -0.983463 4.170704 2.023440 -0.573423 5.254859 -1.822040 0.732234 -12.906450 0.861114 1.250634 33.310280 0.842437 0.419190 13.323061 0.000000 0.000000 0.000000 4.033594 -10.429198 -20.298102 8.475488 -14.320684 1.066687 26.120302 0.448707 2.715136 0.000000 0.000000 0.000000 -7.125000 0.000000 0.000000 -0.364924 26.956246 -0.159836 0.000000 0.000000 0.000000 -1.104105 -5.163260 12.244650 -13.383068 -21.845926 -2.594111 -20.216299 39.182861 24.825363 0.000000 0.000000 0.000000 7.125000 0.000000 0.000000 10.121135 55.935048 -2.735198
